HIERARCHY
ROOT Hips
{
	OFFSET 0.000000 0.000000 0.000000
	CHANNELS 6 Xposition Yposition Zposition Xrotation Yrotation Zrotation
	JOINT LeftUpLeg_virtual
	{
		OFFSET 0.000000 0.000000 0.000000
		CHANNELS 3 Xrotation Yrotation Zrotation
		JOINT LeftUpLeg
		{
			OFFSET 13.026900 -6.336304 -1.092800
			CHANNELS 3 Xrotation Yrotation Zrotation
			JOINT LeftLeg
			{
				OFFSET 0.524474 -46.096886 9.782700
				CHANNELS 3 Xrotation Yrotation Zrotation
				JOINT LeftFoot
				{
					OFFSET -0.524474 -53.427422 -12.948200
					CHANNELS 3 Xrotation Yrotation Zrotation
					JOINT LeftToeBase
					{
						OFFSET 0.192200 -14.009700 16.364100
						CHANNELS 3 Xrotation Yrotation Zrotation
						JOINT LeftToe_End
						{
							OFFSET -1.784700 -0.561700 9.474800
							CHANNELS 3 Xrotation Yrotation Zrotation
							End Site
							{
								OFFSET 0 0 0
							}
						}
					}
				}
			}
		}
	}
	JOINT RightUpLeg_virtual
	{
		OFFSET 0.000000 0.000000 0.000000
		CHANNELS 3 Xrotation Yrotation Zrotation
		JOINT RightUpLeg
		{
			OFFSET -12.883000 -6.336304 -1.092800
			CHANNELS 3 Xrotation Yrotation Zrotation
			JOINT RightLeg
			{
				OFFSET -0.524587 -46.096825 9.782800
				CHANNELS 3 Xrotation Yrotation Zrotation
				JOINT RightFoot
				{
					OFFSET 0.524587 -53.427383 -12.948300
					CHANNELS 3 Xrotation Yrotation Zrotation
					JOINT RightToeBase
					{
						OFFSET -0.192200 -14.009700 16.364100
						CHANNELS 3 Xrotation Yrotation Zrotation
						JOINT RightToe_End
						{
							OFFSET 1.784700 -0.561700 9.474800
							CHANNELS 3 Xrotation Yrotation Zrotation
							End Site
							{
								OFFSET 0 0 0
							}
						}
					}
				}
			}
		}
	}
	JOINT Spine_virtual
	{
		OFFSET 0.000000 0.000000 0.000000
		CHANNELS 3 Xrotation Yrotation Zrotation
		JOINT Spine
		{
			OFFSET 0.072000 7.257294 -0.789700
			CHANNELS 3 Xrotation Yrotation Zrotation
			JOINT Spine1
			{
				OFFSET 0.000000 12.508769 -0.658067
				CHANNELS 3 Xrotation Yrotation Zrotation
				JOINT Spine1_split
				{
					OFFSET 0.000000 12.508769 -0.658067
					CHANNELS 3 Xrotation Yrotation Zrotation
					JOINT Spine2
					{
						OFFSET 0.000000 12.508769 -0.658067
						CHANNELS 3 Xrotation Yrotation Zrotation
						JOINT Neck_virtual
						{
							OFFSET 0.000000 0.000000 0.000000
							CHANNELS 3 Xrotation Yrotation Zrotation
							JOINT Neck
							{
								OFFSET 0.000000 14.033295 7.520400
								CHANNELS 3 Xrotation Yrotation Zrotation
								JOINT Head
								{
									OFFSET 0.000000 8.198502 5.703100
									CHANNELS 3 Xrotation Yrotation Zrotation
									JOINT HeadTop_End
									{
										OFFSET 0.000000 17.760803 13.332701
										CHANNELS 3 Xrotation Yrotation Zrotation
										End Site
										{
											OFFSET 0 0 0
										}
									}
								}
							}
						}
						JOINT LeftShoulder_virtual
						{
							OFFSET 0.000000 0.000000 0.000000
							CHANNELS 3 Xrotation Yrotation Zrotation
							JOINT LeftShoulder
							{
								OFFSET 6.292450 5.785301 -0.669000
								CHANNELS 3 Xrotation Yrotation Zrotation
								JOINT LeftShoulder_split
								{
									OFFSET 6.292450 5.785301 -0.669000
									CHANNELS 3 Xrotation Yrotation Zrotation
									JOINT LeftArm
									{
										OFFSET 13.907140 -6.093903 1.965100
										CHANNELS 3 Xrotation Yrotation Zrotation
										JOINT LeftForeArm
										{
											OFFSET 34.140198 0.000000 0.000000
											CHANNELS 3 Xrotation Yrotation Zrotation
											JOINT LeftHand
											{
												OFFSET 40.960209 0.000000 0.000000
												CHANNELS 3 Xrotation Yrotation Zrotation
												End Site
												{
													OFFSET 0 0 0
												}
											}
										}
									}
								}
							}
						}
						JOINT RightShoulder_virtual
						{
							OFFSET 0.000000 0.000000 0.000000
							CHANNELS 3 Xrotation Yrotation Zrotation
							JOINT RightShoulder
							{
								OFFSET -6.292450 5.785301 -0.669000
								CHANNELS 3 Xrotation Yrotation Zrotation
								JOINT RightShoulder_split
								{
									OFFSET -6.292450 5.785301 -0.669000
									CHANNELS 3 Xrotation Yrotation Zrotation
									JOINT RightArm
									{
										OFFSET -13.907140 -6.093903 1.965100
										CHANNELS 3 Xrotation Yrotation Zrotation
										JOINT RightForeArm
										{
											OFFSET -34.140198 0.000000 0.000000
											CHANNELS 3 Xrotation Yrotation Zrotation
											JOINT RightHand
											{
												OFFSET -40.960209 0.000000 0.000000
												CHANNELS 3 Xrotation Yrotation Zrotation
												End Site
												{
													OFFSET 0 0 0
												}
											}
										}
									}
								}
							}
						}
					}
				}
			}
		}
	}
}
MOTION
Frames: 6
Frame Time: 0.03333333
3.165483 104.465134 -20.479412 0.000000 0.000000 0.000000 -5.073021 -8.601670 14.008606 -35.086839 -15.383169 -1.821267 25.534741 7.413143 2.335673 8.780097 -4.451934 4.990118 5.090263 -1.572572 4.352932 0.000000 0.000000 0.000000 -8.243383 -6.119633 14.043970 -22.963366 -30.407258 -30.444602 46.125176 -9.275309 0.128301 -15.286609 -20.790860 20.327370 12.761189 5.140991 -31.271683 0.000000 0.000000 0.000000 -8.036473 -9.254241 12.816520 27.789690 -5.110437 4.782132 2.088948 6.413168 6.022459 0.203186 0.107235 0.146131 0.000000 0.000000 0.000000 8.457140 8.306687 4.845390 -0.678391 7.925827 18.037193 27.876796 -10.885560 -25.440655 0.000000 0.000000 0.000000 6.571168 7.464852 3.901673 -5.660381 -35.580614 -9.182359 11.149870 -2.031517 7.393299 -12.997260 31.058455 -88.327269 31.974469 -20.416656 21.726098 0.000000 0.000000 0.000000 7.295884 7.689155 5.444714 6.294683 -9.718622 -2.132044 -13.812733 8.076688 -16.230700 -21.965600 14.480619 54.534204 20.610070 -2.366995 -1.245131 0.000000 0.000000 0.000000 
2.423601 105.240562 -19.524426 0.000000 0.000000 0.000000 -5.855486 -5.416146 14.243796 -35.226697 -11.677094 -3.094202 22.434508 7.715487 1.607440 9.427901 -5.901746 5.205471 3.871810 -1.710710 4.972591 0.000000 0.000000 0.000000 -8.163457 -3.595188 14.973202 -16.417553 -30.326846 -26.185666 46.685784 -9.381218 0.097211 -16.919159 -20.208274 16.089590 8.159668 6.606554 -30.896091 0.000000 0.000000 0.000000 -9.843286 -5.304717 13.324908 25.516747 -5.514740 4.396413 1.709605 6.665377 6.413129 -0.383181 0.779842 0.100728 0.000000 0.000000 0.000000 7.607425 8.562897 4.739801 0.312401 6.623756 18.668708 26.384963 -10.819388 -25.389975 0.000000 0.000000 0.000000 5.965037 7.584140 4.463317 -4.543013 -34.149935 -6.079068 16.467142 -2.573474 6.730874 -20.078297 31.627068 -84.368184 32.514108 -24.123040 22.339360 0.000000 0.000000 0.000000 7.317752 7.776350 5.431915 5.875064 -8.908347 -1.009443 -14.610905 11.449115 -11.155307 -22.053393 11.942706 57.106341 19.865170 -1.788569 -0.695493 0.000000 0.000000 0.000000 
1.852439 106.456390 -18.536076 0.000000 0.000000 0.000000 -7.622623 1.420870 15.146231 -34.760513 -7.493846 -5.281143 18.654374 6.385205 0.334813 13.172564 -10.481575 5.127758 1.867381 -2.209227 6.789284 0.000000 0.000000 0.000000 -8.918966 3.367779 16.259404 -5.612137 -26.985830 -19.134275 46.393674 -7.943659 -0.809593 -13.957490 -18.372577 14.784547 -3.593456 9.003175 -27.096035 0.000000 0.000000 0.000000 -11.916255 2.944166 14.502356 21.741558 -6.064923 3.167453 0.990392 6.803430 7.039196 -0.503470 1.224574 0.091730 0.000000 0.000000 0.000000 6.504915 8.915285 5.303149 0.656523 5.772179 18.621473 23.541499 -11.252546 -24.250771 0.000000 0.000000 0.000000 4.591025 7.898393 5.798066 -2.758615 -29.915600 -0.892932 20.930985 -1.934461 1.935663 -27.798511 29.052869 -77.884278 33.100815 -27.588703 23.160381 0.000000 0.000000 0.000000 6.414847 7.811487 5.856866 5.929273 -6.770665 0.937209 -15.456747 11.988456 -6.775685 -21.982631 11.073574 57.492639 18.101748 -2.455147 0.144598 0.000000 0.000000 0.000000 
1.326785 107.702461 -17.001026 0.000000 0.000000 0.000000 -9.736909 10.320647 16.340210 -34.119872 -3.657065 -7.743187 16.150064 4.458237 -1.335772 19.906042 -16.184386 6.672732 0.309288 -2.891599 9.014614 0.000000 0.000000 0.000000 -10.607285 13.322016 17.631218 5.129553 -20.500024 -12.431117 44.651153 -4.852945 -2.324159 -7.614521 -15.518164 15.390602 -17.298608 9.637952 -20.261688 0.000000 0.000000 0.000000 -14.042121 13.009495 15.988214 17.437620 -6.454064 1.735811 -0.028824 6.813688 7.447704 -0.362712 1.306465 -0.028349 0.000000 0.000000 0.000000 5.141450 9.205551 6.093032 0.112155 5.394989 18.336297 19.743452 -12.074800 -22.088721 0.000000 0.000000 0.000000 2.758384 8.307259 7.126793 -1.347568 -23.537629 4.813719 23.703111 -0.371900 -5.125619 -34.231470 24.043562 -70.001946 31.949945 -28.053904 22.768272 0.000000 0.000000 0.000000 4.773713 7.742353 6.222544 6.249306 -3.610909 2.979949 -15.794100 10.688095 -3.272882 -21.423138 11.903998 55.110413 15.736710 -5.040470 0.987737 0.000000 0.000000 0.000000 
0.921369 108.525528 -15.674526 0.000000 0.000000 0.000000 -11.322705 19.409834 17.561946 -34.009803 -0.300741 -10.043822 15.355742 3.095170 -2.786568 27.359390 -20.303393 11.186404 0.285320 -3.401151 10.779726 0.000000 0.000000 0.000000 -12.549726 23.941428 18.585720 13.442833 -13.162001 -7.267618 41.573845 -1.877844 -3.608885 -1.012636 -12.560744 14.948226 -26.481197 7.567494 -13.161935 0.000000 0.000000 0.000000 -15.694205 23.577159 17.293554 13.379096 -6.304480 0.971256 -1.356435 6.757898 7.327173 -0.257064 1.157056 -0.105965 0.000000 0.000000 0.000000 3.616330 9.322029 6.465741 -1.357566 5.267395 18.091368 15.497846 -13.337056 -18.702639 0.000000 0.000000 0.000000 0.919607 8.714587 7.755974 -0.795567 -16.022951 10.327277 24.006081 1.425002 -10.690718 -38.875196 17.570916 -61.003220 28.441186 -24.968617 20.836013 0.000000 0.000000 0.000000 2.729899 7.643199 6.020159 6.493523 0.190913 4.487269 -14.754409 9.440212 -0.901448 -19.745507 13.933858 50.645317 13.366423 -9.086344 1.433585 0.000000 0.000000 0.000000 
0.382690 109.175385 -14.667919 0.000000 0.000000 0.000000 -12.185027 27.379476 18.161294 -33.674865 1.772454 -11.855498 15.286474 2.868354 -3.209919 32.457079 -21.503848 17.413668 1.898123 -3.444289 11.498407 0.000000 0.000000 0.000000 -14.131811 32.776394 18.930706 18.719870 -7.626687 -3.279581 37.250253 -0.313332 -3.939671 3.505706 -10.890923 12.195344 -28.688123 4.443561 -7.786604 0.000000 0.000000 0.000000 -16.390011 32.805791 17.748405 10.190971 -5.611081 1.345869 -2.876946 6.785498 6.403913 -0.076211 0.668105 -0.031143 0.000000 0.000000 0.000000 2.118398 9.300436 6.040671 -3.298270 5.441178 17.952662 11.227974 -14.907171 -14.055127 0.000000 0.000000 0.000000 -0.637784 9.087813 7.218410 -1.210507 -8.460502 14.857673 21.259763 2.173511 -13.580875 -42.376519 12.147472 -51.057133 23.333051 -19.483347 18.272141 0.000000 0.000000 0.000000 0.639453 7.608297 4.929406 6.487108 4.104105 4.763680 -12.727725 8.339832 -0.005034 -17.204562 16.534143 45.349249 11.439450 -13.550749 1.272564 0.000000 0.000000 0.000000 
